<svg width="32" height="21" viewBox="0 0 32 21" fill="none" xmlns="http://www.w3.org/2000/svg">
<path d="M0 2.99944C0 1.96133 0.5946 1.40157 1.7838 1.32015L6.36632 1.35068C6.67387 1.35068 6.87891 1.50334 6.98142 1.80867C7.453 3.3353 7.98097 4.65328 8.56532 5.76263C9.14966 6.87198 9.91342 8.14926 10.8566 9.59447C10.9386 9.77766 11.0719 9.86926 11.2564 9.86926C11.3999 9.86926 11.5127 9.79802 11.5947 9.65553L11.687 9.31967L11.7177 4.03755C11.7177 3.67115 11.6306 3.42689 11.4563 3.30476C11.282 3.18263 10.9591 3.09104 10.4875 3.02997C10.1185 2.96891 9.93392 2.745 9.93392 2.35826C9.93392 2.27684 9.94417 2.21577 9.96468 2.17506C10.3952 0.851983 11.6255 0.190445 13.6553 0.190445L15.3776 0.159912C16.1567 0.159912 16.8026 0.353285 17.3152 0.74003C17.8277 1.12678 18.084 1.73743 18.084 2.57198V9.50287C18.2276 9.60465 18.3608 9.65553 18.4839 9.65553C18.7914 9.65553 19.058 9.47234 19.2835 9.10595C21.5389 5.97127 22.7588 3.8747 22.9434 2.81624C22.9434 2.79589 22.9639 2.745 23.0049 2.66358C23.1484 2.35826 23.3842 2.09364 23.7122 1.86973C24.0403 1.64583 24.3273 1.49317 24.5734 1.41175C24.6554 1.37104 24.7477 1.35068 24.8502 1.35068H29.6172L29.9248 1.38121C30.3349 1.38121 30.6527 1.57459 30.8782 1.96133C30.9602 2.08346 31.0166 2.21577 31.0473 2.35826C31.0781 2.50074 31.0986 2.64323 31.1089 2.78571C31.1191 2.9282 31.1242 3.00962 31.1242 3.02997V3.2437C30.9807 4.07826 30.6168 4.96879 30.0324 5.9153C29.4481 6.86181 28.7048 7.88465 27.8027 8.98382C26.9005 10.083 26.3367 10.8056 26.1111 11.1516C25.9266 11.3959 25.8343 11.6198 25.8343 11.8233C25.8343 11.9862 25.9164 12.1694 26.0804 12.3729L30.5706 17.9909C30.8167 18.3166 30.9397 18.6728 30.9397 19.0596C30.9397 19.5277 30.7552 19.9145 30.3861 20.2198C30.0171 20.5251 29.5762 20.6981 29.0636 20.7388L28.5408 20.7694H23.866C23.8455 20.7694 23.8045 20.7745 23.743 20.7846C23.6815 20.7948 23.6405 20.7999 23.62 20.7999C23.1689 20.7999 22.7486 20.6065 22.359 20.2198C22.2155 20.057 21.2518 18.856 19.468 16.617C19.3655 16.4745 19.222 16.3422 19.0375 16.22C18.9554 16.5457 18.8478 17.0139 18.7145 17.6245C18.5813 18.2352 18.4839 18.6728 18.4223 18.9374L18.3301 19.4565C18.125 20.1689 17.6945 20.5964 17.0384 20.7388L16.6078 20.7694H13.5938C11.892 20.7694 10.1953 19.9959 8.50381 18.4489C6.81227 16.9019 5.28989 14.902 3.93666 12.4493C2.58343 9.99648 1.32247 7.14169 0.153776 3.88488C0.0512586 3.62027 0 3.32512 0 2.99944ZM18.4839 10.9074C18.0533 10.9074 17.6637 10.7903 17.3152 10.5562C16.9666 10.3222 16.7923 10.0016 16.7923 9.59447V2.57198C16.7923 2.16488 16.6898 1.87482 16.4848 1.70181C16.2797 1.52879 15.9209 1.44228 15.4083 1.44228L13.6553 1.50334C12.7736 1.50334 12.1073 1.65601 11.6562 1.96133C12.5584 2.38879 13.0094 3.08086 13.0094 4.03755V9.41127C12.9684 9.92015 12.7634 10.3425 12.3943 10.6784C12.0253 11.0142 11.6152 11.1822 11.1641 11.1822C10.549 11.1822 10.0774 10.887 9.74939 10.2967C8.15012 7.89482 6.96092 5.61506 6.18179 3.45743L5.90499 2.66358L1.81456 2.63305C1.54801 2.63305 1.39936 2.64831 1.36861 2.67885C1.33785 2.70938 1.32247 2.79589 1.32247 2.93837C1.32247 3.12157 1.34298 3.31494 1.38398 3.51849L2.02984 5.22831C3.75213 9.64536 5.62307 13.1261 7.64266 15.6704C9.66225 18.2148 11.646 19.487 13.5938 19.487H16.6693C16.7923 19.487 16.8846 19.4514 16.9461 19.3801C17.0076 19.3089 17.0589 19.1715 17.0999 18.968L17.1614 18.6626L17.7457 15.9758C17.9098 15.6094 18.0533 15.3651 18.1763 15.243C18.4018 15.0191 18.6684 14.9071 18.9759 14.9071C19.468 14.9071 19.9704 15.2023 20.4829 15.7926L23.0971 19.0901C23.2612 19.3547 23.4354 19.487 23.62 19.487H28.6946C29.3097 19.487 29.6172 19.3343 29.6172 19.029C29.6172 18.9272 29.5865 18.8255 29.525 18.7237L25.0655 13.1973C24.7169 12.7699 24.5426 12.3119 24.5426 11.8233C24.5426 11.3348 24.7067 10.8667 25.0347 10.4188C25.3013 10.0117 25.819 9.33494 26.5878 8.38843C27.3567 7.44192 28.0282 6.55648 28.6023 5.7321C29.1764 4.90772 29.5557 4.15968 29.7403 3.48796L29.8325 3.09104C29.812 3.05033 29.8018 2.98417 29.8018 2.89257C29.8018 2.80098 29.7915 2.72465 29.771 2.66358H24.9424C24.6349 2.78571 24.3889 2.96891 24.2043 3.21317L24.0198 3.79328C23.5072 5.19778 22.1642 7.36559 19.9909 10.2967C19.5603 10.7038 19.058 10.9074 18.4839 10.9074Z" fill="#101010"/>
</svg>
